<svg width="818" height="362" xmlns="http://www.w3.org/2000/svg" xmlns:xlink="http://www.w3.org/1999/xlink" xml:space="preserve" overflow="hidden"><defs><clipPath id="clip0"><rect x="130" y="0" width="818" height="362"/></clipPath><clipPath id="clip1"><rect x="130" y="0" width="818" height="362"/></clipPath><clipPath id="clip2"><rect x="131" y="0" width="816" height="362"/></clipPath><clipPath id="clip3"><rect x="131" y="0" width="816" height="362"/></clipPath></defs><g clip-path="url(#clip0)" transform="translate(-130 0)"><g clip-path="url(#clip1)"><g clip-path="url(#clip2)"><g clip-path="url(#clip3)"><g><path d="M661.685 556.708C648.923 555.406 632.628 549.688 621.098 542.482 615.891 539.251 611.893 536.113 607.43 531.742 600.968 525.42 596.621 519.585 592.762 511.984 583.208 493.225 581.86 471.42 588.927 450.151 595.133 431.484 606.919 415.491 623.795 402.846 632.419 396.407 641.392 391.2 664.684 379.135 676.539 372.998 683.001 369.488 688.534 366.188 699.576 359.563 707.037 353.914 713.523 347.266 723.24 337.316 728.33 327.298 730.19 314.396 730.655 311.235 730.562 301.193 730.074 297.567 728.261 284.665 724.518 274.856 718.149 266.394 708.293 253.33 693.415 245.078 675.749 242.87 671.983 242.405 661.941 242.475 658.198 243.009 644.112 244.962 631.908 250.169 621.261 258.723 603.688 272.857 592.274 290.988 588.136 311.398 587.044 316.791 586.253 323.671 586.253 327.786L586.253 329.39 583.58 329.39 580.907 329.39 580.907 289.059 580.907 248.751 581.79 248.518C582.255 248.402 583.673 248.03 584.928 247.728L587.183 247.147 587.183 249.518C587.206 255.399 588.741 258.77 592.042 260.327 593.111 260.815 593.762 260.932 595.831 261.001 598.806 261.118 600.666 260.839 603.92 259.746 608.732 258.142 613.497 255.515 624.376 248.472 631.396 243.916 632.419 243.311 635.278 241.87 642.903 238.081 652.085 235.454 661.918 234.269 665.8 233.804 677.097 233.874 681.328 234.408 705.201 237.314 727.703 248.239 744.695 265.116 760.177 280.528 769.126 298.799 770.846 318.464 771.172 322.277 770.986 330.273 770.475 333.923 768.94 344.964 765.268 353.774 757.852 364.258 743.254 384.854 713.36 408.355 682.258 423.697 656.757 436.273 653.689 437.9 646.506 442.456 632.21 451.545 623.446 461.378 619.983 472.211 618.681 476.255 618.309 479.184 618.169 485.995 617.984 494.457 618.565 500.082 620.308 506.986 625.538 527.744 639.509 542.738 657.85 547.294 669.449 550.153 682.42 548.851 695.554 543.458 708.223 538.251 718.823 529.697 727.052 518.028 734.793 507.032 740.023 493.108 741.627 479.091 741.836 477.371 741.999 475.488 741.999 474.907 741.999 474.326 742.068 473.489 742.138 473.024L742.278 472.187 744.068 472.025C745.044 471.932 746.229 471.792 746.718 471.722L747.578 471.583 747.578 510.682 747.578 549.758 744.486 549.758 741.371 549.758 741.394 546.224C741.418 541.761 740.976 540.018 739.325 538.205 737.745 536.415 736.443 535.927 733.282 535.95 728.656 535.95 725.215 537.159 710.292 543.923 700.738 548.27 698.065 549.432 693.671 551.199 687.418 553.686 680.886 555.546 675.516 556.383 672.611 556.824 664.661 557.034 661.685 556.708ZM630.443 537.275C624.585 530.813 621.331 526.164 618.355 520.003 615.217 513.495 613.288 506.87 612.126 498.618 611.614 494.968 611.545 482.508 612.009 479.207 612.893 472.954 614.288 468.212 616.705 463.331 619.541 457.589 622.772 453.289 628.002 448.175 637.649 438.783 648.203 432.391 674.284 420.071 691.788 411.819 699.064 407.844 710.64 400.149 720.845 393.385 729.493 386.481 737.094 379.019 753.04 363.375 761.641 348.498 764.593 331.505 765.291 327.507 765.36 316.767 764.71 312.769 762.92 301.728 758.898 291.616 752.041 281.039 748.856 276.134 740 265.953 734.235 260.629 732.491 259.002 731.654 258.537 730.957 258.816 730.306 259.049 730.608 259.537 732.491 261.164 736.28 264.442 741.418 270.09 744.835 274.739 751.878 284.386 756.55 295.521 758.154 306.446 762.246 334.597 747.903 363.375 718.869 385.226 708.804 392.804 695.926 400.219 675.168 410.424 650.458 422.558 638.812 429.532 628.165 438.551 624.725 441.48 620.099 446.083 617.472 449.221 608.337 460.1 603.99 473.326 604.455 488.854 604.966 505.405 611.219 520.747 621.819 531.417 625.701 535.322 630.257 538.809 631.559 538.832 631.722 538.832 631.234 538.135 630.443 537.275ZM616.17 532.742C607.5 524.048 601.944 513.286 599.271 500.012 596.97 488.552 596.9 476.65 599.062 462.424 602.432 440.248 615.38 423.023 640.509 407.262 648.621 402.172 655.618 398.336 673.657 389.131 685.628 383.017 691.533 379.879 697.274 376.555 718.311 364.398 730.329 353.17 737.489 339.037 742.371 329.343 744.3 319.906 744.021 306.888 743.905 300.705 743.556 297.636 742.464 292.546 739.744 280.086 733.212 268.579 724.425 260.792 720.078 256.933 717.033 255.004 715.313 255.004L714.476 255.004 717.614 258.212C721.101 261.722 722.914 263.953 725.262 267.44 731.375 276.576 735.141 287.246 736.443 299.171 736.815 302.471 736.815 311.026 736.443 314.164 734.607 330.134 729.655 340.873 719.241 351.45 713.36 357.424 706.456 362.677 696.67 368.605 689.836 372.743 685.024 375.323 664.126 386.109 645.855 395.523 636.115 401.358 626.747 408.401 604.315 425.301 593.599 444.455 591.577 471.188 591.251 475.604 591.437 484.112 591.949 488.157 592.692 494.061 594.273 500.663 596.133 505.754 597.249 508.729 600.735 515.843 602.409 518.492 605.663 523.63 609.034 527.558 614.729 532.905 617.286 535.276 617.984 535.81 618.541 535.81 619.192 535.81 619.03 535.625 616.17 532.742ZM741.301 518.097C741.301 507.614 741.208 500.733 741.069 500.942 740.953 501.151 739.488 504.685 737.815 508.822 736.141 512.96 734.676 516.517 734.56 516.749 734.444 516.958 731.375 520.794 727.726 525.257 724.1 529.72 721.147 533.393 721.194 533.439 721.357 533.602 723.03 532.974 725.727 531.742 729.423 530.069 730.701 529.674 732.468 529.697 735.164 529.697 737.931 531.231 738.977 533.253 739.209 533.718 739.697 534.439 740.023 534.857 741.348 536.415 741.301 537.135 741.301 518.097ZM610.266 451.429C620.285 436.459 634.139 424.999 657.059 412.702 659.756 411.261 668.333 406.891 676.121 403.009 694.299 393.919 700.273 390.688 708.2 385.644 729.167 372.278 742.65 356.424 748.74 337.991 751.088 330.877 751.994 325.345 752.157 316.953 752.297 310.328 751.971 305.958 750.948 300.217 749.949 294.591 747.926 286.874 747.392 286.688 747.229 286.618 746.904 286.734 746.694 286.92 746.346 287.269 746.369 287.478 746.834 289.454 747.392 291.755 748.717 299.24 749.251 302.89 749.437 304.238 749.554 307.214 749.554 310.561 749.53 316.349 749.298 318.743 748.135 324.322 743.998 344.244 731.794 360.12 708.92 375.37 698.506 382.343 687.744 388.434 668.891 398.034 653.108 406.054 646.506 409.68 639.602 414.073 618.541 427.463 606.988 442.479 603.827 460.634 603.618 461.773 603.455 462.959 603.455 463.284 603.455 463.656 604.408 462.029 605.966 458.984 607.337 456.311 609.266 452.893 610.266 451.429ZM592.158 287.617C596.667 278.621 597.132 277.808 601.107 271.857 603.409 268.417 605.268 265.581 605.245 265.534 605.198 265.511 604.222 265.79 603.06 266.162 598.945 267.487 596.435 267.58 593.576 266.534 591.856 265.906 590.74 265.209 588.741 263.489L587.183 262.187 587.183 279.621C587.183 289.221 587.23 297.078 587.299 297.078 587.369 297.078 589.554 292.824 592.158 287.617Z" fill="#000000" fill-rule="nonzero" fill-opacity="1" transform="matrix(1.00067 0 0 -1 131 576.743)"/><path d="M42.0745 549.177 42.0745 546.503 57.0679 546.503 72.0613 546.503 72.0613 395.756 72.0613 245.008 71.085 245.032C70.5271 245.032 63.8091 245.264 56.1381 245.566 48.467 245.845 42.1675 246.078 42.1442 246.054 42.121 246.054 42.7021 240.08 42.7486 239.708 42.7719 239.685 75.8968 239.685 116.414 239.732 197.541 239.801 189.823 239.662 198.866 241.173 215.789 244.032 231.27 250.727 243.614 260.513 246.357 262.675 253.191 269.532 255.376 272.322 264.279 283.619 269.672 296.706 271.601 311.723 272.764 320.673 272.485 332.295 270.927 339.595 266.394 361.004 248.263 381.832 223.274 394.315 212.232 399.824 200.586 403.264 189.963 404.148 188.917 404.241 188.08 404.333 188.126 404.38 188.15 404.426 191.218 405.101 194.891 405.868 207.653 408.541 218.485 412.911 228.202 419.28 238.453 425.975 246.287 435.204 250.68 445.641 254.888 455.706 256.608 466.213 256.329 480.021 256.12 489.157 255.492 494.154 253.818 499.989 249.355 515.354 237.756 529.743 221.972 539.437 212.65 545.178 202.701 548.991 191.497 551.083L188.173 551.71 115.135 551.78 42.0745 551.85 42.0745 549.177ZM183.175 547.085C202.701 544.876 219.647 537.228 231.642 525.234 241.429 515.447 247.333 503.476 249.309 489.459 251.075 476.953 249.564 459.89 245.706 448.802 242.498 439.551 235.966 431.322 225.9 423.86 219.461 419.094 210.442 414.562 203.492 412.609 202.12 412.237 200.958 411.958 200.911 412.005 200.865 412.051 205.189 414.678 210.535 417.839L220.252 423.627 223.855 427.23C228.132 431.508 230.55 434.46 233.781 439.272 247.147 459.286 248.844 483.508 238.314 504.196 230.55 519.446 216.695 531.626 198.169 539.53 193.496 541.529 180.386 546.039 179.27 546.039 178.712 546.039 177.829 546.689 177.829 547.108 177.829 547.549 179.13 547.526 183.175 547.085ZM140.287 546.387C156.559 544.667 166.508 542.156 176.55 537.205 183.57 533.742 188.684 530.092 193.752 524.862 202.748 515.61 208.141 504.15 210.698 488.994 211.767 482.741 212.069 478.301 211.93 470.955 211.767 463.122 211.233 458.472 209.768 452.359 206.002 436.784 197.657 424.371 186.197 417.235 181.06 414.05 168.949 409.076 161.441 407.076L159.116 406.472 138.032 406.379 116.925 406.309 116.925 475.697 116.925 545.085 117.53 545.55C118.994 546.713 121.342 546.968 129.827 546.852 133.918 546.806 138.241 546.62 140.287 546.387ZM84.8463 395.756 84.8463 245.008 81.592 245.008 78.3376 245.008 78.3376 395.756 78.3376 546.503 81.592 546.503 84.8463 546.503 84.8463 395.756ZM97.6314 395.756 97.6314 245.008 94.4933 245.008 91.3551 245.008 91.3551 395.756 91.3551 546.503 94.4933 546.503 97.6314 546.503 97.6314 395.756ZM111.579 395.756 111.579 245.008 107.859 245.008 104.14 245.008 104.14 395.756 104.14 546.503 107.859 546.503 111.579 546.503 111.579 395.756ZM189.568 537.112C197.936 532.974 206.49 525.978 211.837 518.864 217.416 511.449 221.623 501.825 223.622 491.876 224.947 485.298 225.133 483.345 225.133 475.14 225.133 466.887 224.924 464.47 223.622 458.217 220.229 441.643 211.581 427.788 199.726 419.908 197.471 418.397 192.962 416.003 193.868 416.793 200.121 422.209 202.934 425.324 206.7 431.089 214.882 443.549 219.136 459.681 218.671 476.534 218.09 497.13 210.907 515.308 198.378 527.814 196.262 529.929 194.612 531.231 189.149 535.09 185.476 537.67 182.478 539.832 182.478 539.878 182.478 540.134 186.987 538.391 189.568 537.112ZM213.464 526.117C224.808 519.236 233.246 506.8 236.524 492.179 237.895 486.042 238.128 483.74 238.128 475.953 238.128 468.166 237.872 465.539 236.5 459.333 233.014 443.642 224.459 430.322 214.208 424.604 213.371 424.115 212.627 423.767 212.581 423.813 212.534 423.837 213.232 424.72 214.138 425.743 224.087 437.087 230.061 451.964 231.549 469.096 231.898 473.047 231.689 482.392 231.177 486.065 229.992 494.712 227.76 502.197 224.273 509.218 222.832 512.146 222.088 513.286 217.672 519.097 211.465 527.326 211.697 526.977 211.907 526.977 211.976 526.977 212.674 526.605 213.464 526.117ZM162.951 399.94C171.506 398.848 178.526 396.709 185.965 392.943 197.332 387.202 207.072 378.066 214.278 366.373 220.693 355.936 224.831 343.825 226.575 330.436 227.086 326.368 227.179 313.048 226.691 309.166 225.529 299.845 223.367 291.709 220.019 284.107 216.393 275.902 212.186 269.579 206.676 264.046 196.169 253.493 182.687 248.03 162.487 246.078 155.35 245.38 149.12 245.171 135.522 245.148 123.271 245.125 121.505 245.171 119.994 245.52 119.087 245.729 118.041 246.054 117.669 246.217L117.041 246.519 116.972 323.253 116.925 399.987 119.413 399.894C120.807 399.847 122.504 399.777 123.202 399.731 124.596 399.638 135.568 399.963 142.03 400.289 148.051 400.568 159.465 400.405 162.951 399.94ZM187.243 398.057C198.215 395.43 207.978 390.014 216.277 381.925 220.879 377.438 224.32 373.138 227.435 368.024 233.827 357.47 237.686 345.917 239.36 332.412 239.871 328.227 239.941 316.721 239.476 312.769 237.57 296.474 232.595 283.689 223.622 271.973 219.81 267.022 212.79 260.722 207.211 257.282 205.119 256.004 200.633 253.679 201.772 254.469 207.536 258.537 213.813 264.418 217.09 268.789 225.343 279.83 229.806 292.801 231.921 311.723 232.247 314.745 232.34 317.325 232.34 323.811 232.316 332.714 232.061 335.62 230.712 342.593 227.574 358.702 219.485 373.138 207.839 383.389 203.259 387.434 201.144 388.852 192.357 393.78 187.754 396.36 183.896 398.592 183.756 398.708 183.501 398.964 183.524 398.941 187.243 398.057ZM207.653 395.779C241.266 382.622 261.28 359.934 265.116 330.599 265.999 323.974 265.976 314.722 265.116 308.236 263.93 299.519 260.769 290.686 256.027 282.875 245.032 264.674 224.901 250.959 202.701 246.543 198.331 245.659 190.59 244.753 191.311 245.218 191.497 245.334 197.215 247.728 204.026 250.564 215.184 255.19 216.765 255.911 220.182 257.933 229.48 263.489 235.733 268.231 241.545 274.205 248.867 281.76 253.609 289.919 256.608 300.17 258.654 307.19 259.49 312.932 259.49 320.208 259.514 325.787 259.281 328.204 258.258 333.342 253.4 357.749 234.827 379.623 206.072 394.849 204.468 395.686 203.166 396.477 203.166 396.593 203.166 397.104 205.212 396.732 207.653 395.779ZM236.826 365.699C242.614 358.656 247.519 349.195 250.099 340.013 252.912 330.041 253.609 318.813 252.075 308.585 250.425 297.45 245.682 286.339 238.964 277.901 236.919 275.344 229.713 268.184 228.574 267.58 228.062 267.324 227.109 267.231 227.109 267.44 227.109 267.51 230.108 272.624 233.757 278.784 240.243 289.663 240.452 290.058 241.452 293.127 243.59 299.705 245.287 307.841 245.961 314.629 246.612 321.254 246.171 330.087 244.892 336.48 243.986 340.989 243.381 342.779 238.128 356.424 235.385 363.561 233.153 369.465 233.153 369.558 233.153 369.86 234.897 368.001 236.826 365.699Z" fill="#000000" fill-rule="nonzero" fill-opacity="1" transform="matrix(1.00067 0 0 -1 131 576.743)"/><path d="M283.596 549.177 283.596 546.503 298.473 546.503 313.35 546.503 313.35 395.733 313.35 244.962 312.49 245.101C308.353 245.775 299.473 245.892 290.918 245.357 287.85 245.171 284.944 245.008 284.479 245.008L283.596 245.008 283.596 242.335 283.596 239.662 336.34 239.662 389.108 239.662 389.573 240.266C390.642 241.638 390.735 244.009 389.759 245.148 389.456 245.496 388.689 245.892 387.852 246.124 385.877 246.682 377.996 246.612 370.302 245.961 362.282 245.311 360.841 245.311 359.377 246.054L358.214 246.636 358.214 320.487 358.214 394.338 360.841 396.918C364.677 400.684 367.396 402.613 367.977 402.009 368.07 401.893 391.92 366.862 420.954 324.183 466.515 257.212 473.768 246.45 473.698 245.845 473.605 244.892 473.024 244.799 471.908 245.566L471.048 246.171 460.658 246.171 450.267 246.171 450.267 242.916 450.267 239.662 496.642 239.662 542.993 239.662 543.458 240.15C544.574 241.359 544.667 244.148 543.644 245.194L543.063 245.775 539.716 245.334C537.833 245.078 535.02 244.892 533.253 244.892 530.487 244.915 529.976 244.962 528.953 245.427L527.791 245.961 464.098 341.338C421.187 405.612 400.382 436.947 400.335 437.412 400.242 438.272 401.149 439.644 404.194 443.247 414.562 455.543 427.928 469.328 454.567 495.061 479.44 519.12 481.532 521.259 495.293 536.531L504.243 546.503 517.353 546.503 530.464 546.503 530.464 549.177 530.464 551.85 490.365 551.85 450.267 551.85 450.267 549.177 450.267 546.503 465.725 546.457 481.183 546.387 433.902 489.714 386.597 433.065 372.51 418.188C364.746 410.005 358.354 403.311 358.307 403.311 358.261 403.311 358.214 435.529 358.214 474.907L358.214 546.503 374.254 546.503 390.293 546.503 390.154 547.085C390.084 547.41 389.735 548.572 389.387 549.688L388.759 551.734 336.177 551.803 283.596 551.85 283.596 549.177ZM327.298 395.756 327.298 245.008 323.578 245.008 319.859 245.008 319.859 395.756 319.859 546.503 323.578 546.503 327.298 546.503 327.298 395.756ZM339.153 395.756 339.153 245.008 336.015 245.008 332.877 245.008 332.877 395.756 332.877 546.503 336.015 546.503 339.153 546.503 339.153 395.756ZM352.868 395.872 352.868 245.241 349.148 245.241 345.429 245.241 345.429 395.872 345.429 546.503 349.148 546.503 352.868 546.503 352.868 395.872ZM496.061 546.364C496.061 546.178 489.11 538.46 483.624 532.556 475.953 524.327 455.404 503.22 455.776 503.987 455.869 504.196 463.749 513.797 473.257 525.303L490.551 546.248 492.667 546.341C493.829 546.364 495.061 546.434 495.433 546.457 495.782 546.48 496.061 546.434 496.061 546.364ZM457.845 339.85C492.062 288.78 520.096 246.868 520.166 246.705 520.236 246.543 518.981 245.566 517.307 244.45L514.355 242.475 512.797 244.729C508.567 250.889 389.596 428.672 389.596 428.811 389.619 429.044 395.221 432.809 395.454 432.763 395.57 432.74 423.627 390.921 457.845 339.85ZM444.758 334.504C477.278 285.99 504.08 245.985 504.336 245.613L504.754 244.939 501.407 245.101 498.036 245.264 496.014 247.286C494.108 249.193 490.9 254.004 437.97 333.923L381.948 418.537 382.459 419.35C384.575 422.837 384.993 423.372 385.295 423.046 385.458 422.86 412.214 383.017 444.758 334.504ZM383.11 404.403C386.388 399.266 389.038 395.012 388.991 394.966 388.945 394.919 385.993 396.569 382.436 398.638 377.02 401.776 375.718 402.637 374.626 403.776 372.464 406.03 371.976 407.634 372.859 409.471 373.301 410.401 376.555 413.771 376.95 413.771 377.066 413.748 379.833 409.54 383.11 404.403ZM390.805 386.504 398.313 381.785 436.598 324.857C493.271 240.568 487.762 248.89 488.25 246.914 488.482 245.985 488.645 245.171 488.575 245.125 488.529 245.078 486.995 245.264 485.158 245.543L481.811 246.054 434.762 315.21C408.89 353.24 386.69 385.9 385.388 387.806 384.11 389.689 383.11 391.223 383.18 391.223 383.25 391.223 386.667 389.108 390.805 386.504Z" fill="#000000" fill-rule="nonzero" fill-opacity="1" transform="matrix(1.00067 0 0 -1 131 576.743)"/><path d="M315.582 178.758C302.983 177.317 292.267 170.111 287.292 159.767 283.991 152.863 283.038 144.355 284.758 136.661 287.664 123.48 297.753 113.973 312.142 110.858 315.024 110.231 322.37 109.998 325.926 110.393 332.528 111.16 337.758 112.904 342.291 115.856L344.267 117.158 344.267 130.64 344.267 144.123 331.947 144.123 319.627 144.123 319.627 140.752 319.627 137.381 327.879 137.381 336.131 137.381 336.131 129.269 336.131 121.156 334.504 120.319C332.551 119.273 330.343 118.506 327.716 117.925 326.159 117.576 324.787 117.506 320.556 117.53 315.442 117.53 315.28 117.553 312.537 118.273 301.053 121.319 293.522 130.198 292.708 141.728 292.081 150.166 294.452 157.396 299.612 162.812 303.378 166.74 308.422 169.483 314.28 170.762 317 171.366 323.718 171.366 326.717 170.785 329.901 170.158 333.69 168.879 336.433 167.484 337.805 166.787 338.92 166.276 338.92 166.299 338.92 166.345 339.292 168.019 339.734 170.041 340.362 172.924 340.478 173.784 340.245 173.923 338.595 175.062 334.318 176.759 331.063 177.573 326.786 178.665 319.557 179.2 315.582 178.758Z" fill="#000000" fill-rule="nonzero" fill-opacity="1" transform="matrix(1.00067 0 0 -1 131 576.743)"/><path d="M484.996 178.758C478.743 178.084 472.048 175.527 467.236 171.924 464.702 170.018 460.96 166.159 459.379 163.765 456.752 159.813 455.009 155.397 454.172 150.515 453.521 146.61 453.661 140.287 454.521 136.684 457.938 122.341 469.165 112.392 484.205 110.393 486.971 110.021 493.271 110.254 495.944 110.835 504.545 112.695 512.077 117.413 517.098 124.108 523.56 132.709 525.396 145.099 521.817 155.838 518.725 165.137 511.542 172.598 502.128 176.318 496.665 178.48 490.575 179.34 484.996 178.758ZM493.062 170.948C501.291 169.53 508.311 164.393 512.1 157.001 515.285 150.794 515.866 142.449 513.611 135.312 510.798 126.456 502.825 119.529 493.434 117.739 491.063 117.297 486.181 117.297 483.81 117.739 471.025 120.18 462.354 130.919 462.354 144.285 462.354 149.213 463.191 152.863 465.26 157.024 470.328 167.205 481.695 172.901 493.062 170.948Z" fill="#000000" fill-rule="nonzero" fill-opacity="1" transform="matrix(1.00067 0 0 -1 131 576.743)"/><path d="M134.801 177.433C133.592 174.598 107.627 111.602 107.627 111.486 107.627 111.416 109.487 111.346 111.788 111.346L115.926 111.346 119.552 120.249 123.155 129.129 136.684 129.129 150.19 129.129 153.839 120.249 157.489 111.37 161.836 111.346 166.206 111.346 165.671 112.578C165.369 113.229 159.116 128.362 151.794 146.168L138.427 178.526 136.847 178.526 135.266 178.526 134.801 177.433ZM137.916 160.185C138.497 158.395 140.798 152.305 143.053 146.633 145.308 140.938 147.144 136.219 147.144 136.149 147.144 136.056 142.426 135.987 136.661 135.987 126.781 135.987 126.177 136.01 126.293 136.405 126.34 136.614 128.385 141.821 130.826 147.958 133.267 154.095 135.545 160.092 135.917 161.255 136.266 162.44 136.637 163.416 136.707 163.416 136.8 163.416 137.335 161.952 137.916 160.185Z" fill="#000000" fill-rule="nonzero" fill-opacity="1" transform="matrix(1.00067 0 0 -1 131 576.743)"/><path d="M741.65 177.945C734.328 176.597 729.33 172.575 727.238 166.322 726.564 164.3 726.308 161.348 726.587 159.023 727.563 151.329 732.631 146.354 743.393 142.495 750.204 140.055 753.575 137.73 755.318 134.243 756.853 131.128 756.76 126.549 755.086 123.666 753.575 121.086 750.344 118.924 746.95 118.204 743.789 117.53 738.744 117.855 734.56 119.017 732.375 119.622 728.191 121.621 726.099 123.062L724.495 124.178 724.634 123.504C724.704 123.155 724.936 121.202 725.169 119.18L725.587 115.507 726.866 114.74C728.423 113.787 730.306 112.997 732.817 112.206 739.372 110.161 747.624 110.323 753.296 112.625 758.735 114.81 762.641 119.227 764.012 124.713 764.57 127.014 764.57 132.477 763.989 134.708 762.525 140.38 758.573 144.564 751.506 147.935 750.042 148.632 747.647 149.632 746.183 150.19 739.883 152.514 736.815 154.606 735.188 157.721 734.49 159.046 734.444 159.255 734.444 161.673 734.444 164.021 734.49 164.346 735.118 165.625 738.256 172.017 747.926 173.435 756.806 168.786 757.782 168.275 758.643 167.903 758.689 167.949 758.921 168.158 760.339 174.412 760.223 174.598 759.805 175.295 755.272 177.062 752.18 177.736 749.786 178.27 744.021 178.387 741.65 177.945Z" fill="#000000" fill-rule="nonzero" fill-opacity="1" transform="matrix(1.00067 0 0 -1 131 576.743)"/><path d="M46.2587 144.494 46.2587 111.346 58.0674 111.346C68.6442 111.346 70.0622 111.393 71.945 111.788 80.4297 113.531 86.4038 119.25 87.9845 127.13 88.5424 129.803 88.3564 134.034 87.6358 136.335 86.5898 139.659 84.2884 143.239 82.0336 145.099 80.3367 146.47 78.2678 147.702 76.8731 148.191 76.1525 148.423 75.5481 148.702 75.5481 148.772 75.5481 148.841 76.013 149.19 76.5942 149.539 78.7095 150.887 80.6621 153.862 81.4757 157.024 81.9639 158.86 81.9639 162.626 81.4757 164.695 81.2898 165.601 80.6854 167.205 80.1507 168.298 79.3836 169.879 78.8257 170.646 77.1985 172.273 75.4551 174.016 74.8507 174.458 72.7354 175.458 68.5512 177.48 68.9696 177.433 56.9052 177.526L46.2587 177.619 46.2587 144.494ZM65.4363 170.274C69.8529 169.344 72.6192 166.508 73.2933 162.254 73.9442 158.023 71.9218 154.002 68.2258 152.282 66.1104 151.259 64.8087 151.096 59.3924 151.096L54.3946 151.096 54.3946 160.859 54.3946 170.623 59.1135 170.623C62.3446 170.623 64.3205 170.506 65.4363 170.274ZM68.9929 143.751C71.5499 143.239 74.2929 141.844 76.0828 140.171 79.0117 137.451 80.2437 133.755 79.7091 129.431 79.1977 125.224 76.8266 121.946 72.8749 119.994 70.0854 118.599 69.3415 118.483 61.5543 118.39L54.3946 118.273 54.3946 131.198 54.3946 144.123 60.7872 144.123C65.692 144.123 67.6214 144.03 68.9929 143.751Z" fill="#000000" fill-rule="nonzero" fill-opacity="1" transform="matrix(1.00067 0 0 -1 131 576.743)"/><path d="M175.039 173.993 175.039 170.39 186.081 170.39 197.122 170.39 197.122 140.868 197.122 111.346 201.423 111.346 205.723 111.346 205.723 140.868 205.723 170.39 216.765 170.39 227.807 170.39 227.807 173.993 227.807 177.596 201.423 177.596 175.039 177.596 175.039 173.993Z" fill="#000000" fill-rule="nonzero" fill-opacity="1" transform="matrix(1.00067 0 0 -1 131 576.743)"/><path d="M249.657 144.471 249.657 111.346 253.958 111.346 258.258 111.346 258.258 144.471 258.258 177.596 253.958 177.596 249.657 177.596 249.657 144.471Z" fill="#000000" fill-rule="nonzero" fill-opacity="1" transform="matrix(1.00067 0 0 -1 131 576.743)"/><path d="M370.534 144.471 370.534 111.346 374.719 111.346 378.903 111.346 378.903 137.451C378.903 151.794 378.903 163.626 378.903 163.719 378.903 163.835 380.646 161.836 382.785 159.302 389.247 151.677 392.269 148.26 409.796 128.711L426.626 109.952 427.858 109.952 429.113 109.952 429.113 143.774 429.113 177.596 424.79 177.596 420.466 177.596 420.559 152.607C420.605 138.869 420.605 127.618 420.605 127.618 420.582 127.618 419.048 129.431 417.188 131.64 412.539 137.195 410.308 139.706 392.316 159.883L376.485 177.596 373.51 177.596 370.534 177.596 370.534 144.471Z" fill="#000000" fill-rule="nonzero" fill-opacity="1" transform="matrix(1.00067 0 0 -1 131 576.743)"/><path d="M548.131 144.471 548.131 111.346 567.541 111.346 586.951 111.346 586.951 114.949 586.951 118.552 571.841 118.552 556.731 118.552 556.731 148.074 556.731 177.596 552.431 177.596 548.131 177.596 548.131 144.471Z" fill="#000000" fill-rule="nonzero" fill-opacity="1" transform="matrix(1.00067 0 0 -1 131 576.743)"/><path d="M607.872 144.471 607.872 111.346 627.166 111.346 646.459 111.346 646.459 114.949 646.459 118.552 631.419 118.599 616.356 118.669 616.287 148.144 616.24 177.596 612.056 177.596 607.872 177.596 607.872 144.471Z" fill="#000000" fill-rule="nonzero" fill-opacity="1" transform="matrix(1.00067 0 0 -1 131 576.743)"/><path d="M667.38 144.471 667.38 111.346 686.907 111.346 706.433 111.346 706.433 114.949 706.433 118.552 691.207 118.552 675.981 118.552 675.981 129.71 675.981 140.868 687.023 140.868 698.065 140.868 698.065 144.587 698.065 148.307 687.023 148.307 675.981 148.307 675.981 159.348 675.981 170.39 689.231 170.39 702.481 170.39 702.481 173.993 702.481 177.596 684.931 177.596 667.38 177.596 667.38 144.471Z" fill="#000000" fill-rule="nonzero" fill-opacity="1" transform="matrix(1.00067 0 0 -1 131 576.743)"/><path d="M496.758 75.7573C492.667 75.4319 487.878 73.8977 484.438 71.8288 481.811 70.2481 480.347 69.0858 478.324 66.9705 473.373 61.7867 470.886 55.3942 470.886 47.8859 470.909 44.399 471.141 42.6556 472.001 39.6105 474.93 29.4056 483.694 21.9206 494.852 20.0842 497.572 19.6425 502.732 19.7587 505.336 20.3166 516.819 22.8272 524.932 30.7539 527.349 41.8885 527.907 44.4688 528.023 49.6293 527.582 52.349 526.094 61.4148 520.864 68.5744 512.704 72.6889 507.8 75.1529 502.383 76.199 496.758 75.7573ZM502.267 69.481C504.778 69.1556 508.264 67.9236 510.519 66.5753 514.262 64.3438 517.749 60.206 519.329 56.1381 520.445 53.2789 520.771 51.3727 520.771 47.6534 520.794 44.9569 520.678 43.8644 520.282 42.2372 518.307 34.264 512.565 28.3596 504.638 26.221 502.128 25.5469 497.083 25.4771 494.619 26.1048 486.53 28.1271 480.718 33.7526 478.58 41.6328 478.138 43.3065 478.068 44.1666 478.045 47.6534 478.045 51.1868 478.115 51.9771 478.58 53.674 480.254 59.8573 484.136 64.6227 489.668 67.3889 493.736 69.4113 497.827 70.0854 502.267 69.481Z" fill="#000000" fill-rule="nonzero" fill-opacity="1" transform="matrix(1.00067 0 0 -1 131 576.743)"/><path d="M387.713 74.967C380.484 73.4793 375.904 68.1793 375.881 61.3451 375.881 60.3455 376.067 58.8113 376.346 57.7885 377.694 52.4885 381.623 49.0714 389.735 46.1425 395.244 44.1666 398.197 42.0745 399.498 39.2385 400.103 37.9135 400.173 37.5416 400.173 35.217 400.173 32.846 400.126 32.567 399.498 31.3118 398.243 28.871 395.826 27.1043 392.687 26.3605 391.479 26.0815 390.409 26.0118 388.201 26.1048 383.691 26.314 379.786 27.546 375.951 30.0333L374.347 31.0793 374.765 27.8017C374.974 25.9886 375.16 24.4079 375.184 24.2684 375.207 23.571 380.181 21.5022 383.552 20.7815 386.481 20.1307 392.246 20.1772 394.966 20.8513 401.172 22.4087 405.008 25.9886 406.495 31.614 407.1 33.9385 407.03 37.9833 406.356 40.2148 405.17 44.0504 403.566 46.1425 399.824 48.6065 397.685 50.0477 395.547 51.0705 391.595 52.5582 384.877 55.092 382.32 57.649 382.297 61.8332 382.25 69.1323 391.339 72.1543 400.242 67.8306 401.312 67.3192 402.195 66.924 402.241 66.9705 402.288 67.017 402.544 68.0398 402.823 69.2253 403.078 70.4341 403.38 71.6429 403.45 71.9218 403.566 72.3867 403.357 72.5494 401.753 73.2933 398.778 74.688 396.732 75.1297 392.734 75.2227 390.386 75.2692 388.736 75.1994 387.713 74.967Z" fill="#000000" fill-rule="nonzero" fill-opacity="1" transform="matrix(1.00067 0 0 -1 131 576.743)"/><path d="M183.175 47.7697 183.175 20.6886 186.662 20.6886 190.149 20.6886 190.195 33.5201 190.265 46.3284 201.307 33.5201 212.348 20.7118 216.858 20.7118C221.089 20.6886 221.344 20.7118 221.042 21.0837 220.856 21.3162 215.463 27.546 209.024 34.9381L197.332 48.374 208.559 61.2056C214.743 68.2722 219.926 74.2231 220.112 74.4556 220.415 74.8275 220.182 74.8507 216.509 74.8507L212.581 74.8507 201.423 61.9727 190.265 49.0947 190.195 61.9727 190.149 74.8507 186.662 74.8507 183.175 74.8507 183.175 47.7697Z" fill="#000000" fill-rule="nonzero" fill-opacity="1" transform="matrix(1.00067 0 0 -1 131 576.743)"/><path d="M236.872 47.7697 236.872 20.6886 240.359 20.6886 243.846 20.6886 243.846 47.7697 243.846 74.8507 240.359 74.8507 236.872 74.8507 236.872 47.7697Z" fill="#000000" fill-rule="nonzero" fill-opacity="1" transform="matrix(1.00067 0 0 -1 131 576.743)"/><path d="M263.837 47.7697 263.837 20.6886 267.347 20.6886 270.834 20.6886 270.764 42.0745C270.718 53.8367 270.764 63.4372 270.834 63.4139 270.904 63.3674 272.787 61.2056 274.995 58.5788 279.97 52.6977 279.574 53.1626 296.125 34.7056L309.724 19.5263 310.724 19.5263 311.723 19.5263 311.723 47.1885 311.723 74.8507 308.236 74.8507 304.749 74.8507 304.796 54.5109C304.842 43.3298 304.796 34.171 304.726 34.171 304.656 34.171 303.61 35.3565 302.402 36.7977 299.031 40.8192 294.754 45.6776 281.202 60.8569L268.696 74.8507 266.255 74.8507 263.837 74.8507 263.837 47.7697Z" fill="#000000" fill-rule="nonzero" fill-opacity="1" transform="matrix(1.00067 0 0 -1 131 576.743)"/><path d="M330.785 47.7697 330.785 20.6886 346.708 20.6886 362.631 20.6886 362.631 23.7105 362.631 26.7324 350.195 26.7324 337.758 26.7324 337.758 35.7982 337.758 44.864 346.824 44.864 355.89 44.864 355.89 47.8859 355.89 50.9078 346.824 50.9078 337.758 50.9078 337.758 59.8573 337.758 68.8069 348.684 68.8069 359.609 68.8069 359.609 71.8288 359.609 74.8507 345.197 74.8507 330.785 74.8507 330.785 47.7697Z" fill="#000000" fill-rule="nonzero" fill-opacity="1" transform="matrix(1.00067 0 0 -1 131 576.743)"/><path d="M423.999 47.7929 423.999 20.6886 427.37 20.6886 430.74 20.6886 430.74 32.753 430.74 44.8175 436.97 44.9337C444.06 45.0732 444.874 45.2126 448.407 46.8863 452.498 48.8389 455.288 52.3955 456.171 56.7657 457.612 63.7394 454.451 70.1087 448.128 73.1073 444.758 74.688 444.665 74.7113 433.832 74.8043L423.999 74.874 423.999 47.7929ZM441.945 68.5512C443.526 68.2025 445.618 67.1565 446.78 66.1104 447.291 65.6455 448.035 64.5762 448.454 63.7394 449.174 62.2981 449.221 62.0424 449.221 59.7411 449.221 57.4398 449.174 57.2074 448.454 55.7429 447.57 53.9297 446.338 52.7675 444.339 51.8144 442.41 50.9078 440.62 50.6754 435.343 50.6754L430.74 50.6754 430.74 59.7411 430.74 68.8069 435.738 68.8069C438.528 68.8069 441.247 68.6907 441.945 68.5512Z" fill="#000000" fill-rule="nonzero" fill-opacity="1" transform="matrix(1.00067 0 0 -1 131 576.743)"/><path d="M544.876 47.7929 544.876 20.6886 548.363 20.6886 551.85 20.6886 551.85 32.7763 551.85 44.864 555.523 44.864 559.195 44.864 567.913 32.7763 576.606 20.6886 580.86 20.6886C583.185 20.6886 585.091 20.7583 585.091 20.828 585.091 20.8978 580.953 26.5464 575.909 33.3806 570.865 40.2148 566.727 45.8635 566.727 45.9797 566.727 46.0727 567.401 46.4447 568.192 46.7933 571.353 48.2113 573.956 50.7451 575.281 53.7205 576.258 55.8591 576.583 57.4631 576.583 59.9736 576.56 64.2043 575.351 67.2029 572.445 70.1087 570.935 71.6196 570.167 72.1775 568.587 72.9446 564.937 74.688 564.937 74.688 554.36 74.781L544.876 74.874 544.876 47.7929ZM563.473 68.156C567.308 66.6218 569.517 63.5534 569.517 59.7411 569.517 55.8591 567.215 52.7442 563.356 51.3495 562.124 50.9078 561.334 50.8381 556.917 50.7218L551.85 50.6289 551.85 59.7411 551.85 68.8534 557.034 68.7604C561.683 68.6907 562.31 68.6209 563.473 68.156Z" fill="#000000" fill-rule="nonzero" fill-opacity="1" transform="matrix(1.00067 0 0 -1 131 576.743)"/><path d="M587.183 71.8288 587.183 68.8069 596.133 68.8069 605.082 68.8069 605.082 44.7477 605.082 20.6886 608.569 20.6886 612.056 20.6886 612.056 44.7477 612.056 68.8069 621.122 68.8069 630.188 68.8069 630.188 71.8288 630.188 74.8507 608.685 74.8507 587.183 74.8507 587.183 71.8288Z" fill="#000000" fill-rule="nonzero" fill-opacity="1" transform="matrix(1.00067 0 0 -1 131 576.743)"/></g></g></g></g></g></svg>